<svg xmlns="http://www.w3.org/2000/svg" viewBox="0 0 652.837 696.922">
  <path fill="#ffffff" d="M363.673 320.852l143.058-176.324-173.374 145.506-.916-.9a67.368 67.368 0 00-8.221-3.119L306.753 0l-17.454 284.919a64.057 64.057 0 00-11.327 3.937L131.147 144.372l115.176 176.161a63.6 63.6 0 00-3.771 10.689L0 346.054l.3 5.171 242.918 14.803a64.375 64.375 0 003.119 8.5L131.173 550.747l146.98-144.608a63.724 63.724 0 0011.022 3.826l17.578 286.957 17.592-287.955a64.238 64.238 0 007.611-2.911l1.178-1.178 173.61 145.717-143.11-176.383a63.555 63.555 0 003.009-8.124l286.194-17.454-285.57-17.454a66.4 66.4 0 00-3.594-10.328zm-57.02 91.29l-.638-.208c.513 0 1.026-.055 1.54-.069zm-1.331-30.25a33.57 33.57 0 1133.507-33.591 33.609 33.609 0 01-33.504 33.591z" data-name="Tracé 251"/>
</svg>